REM DIRINDEX 1\2,1\3,1\4,1\5
REM DIRNAME cjc093,folder01,folder02,folder03,folder04
TITLE ""
FILE "Round-04-090-091.mp3" MP3
  TRACK 01 AUDIO
    TITLE "0:"
    INDEX 01 00:00:00
  TRACK 02 AUDIO
    TITLE "2:cjc093_1081"
    INDEX 01 00:00:01
  TRACK 03 AUDIO
    TITLE "0:"
    INDEX 01 00:01:05
  TRACK 04 AUDIO
    TITLE "3:cjc093_1082"
    INDEX 01 00:01:40
  TRACK 05 AUDIO
    TITLE "0:"
    INDEX 01 00:03:53
  TRACK 06 AUDIO
    TITLE "4:cjc093_1083"
    INDEX 01 00:04:13
  TRACK 07 AUDIO
    TITLE "0:"
    INDEX 01 00:06:35
  TRACK 08 AUDIO
    TITLE "3:cjc093_1084"
    INDEX 01 00:07:49
  TRACK 09 AUDIO
    TITLE "0:"
    INDEX 01 00:08:68
  TRACK 10 AUDIO
    TITLE "4:cjc093_1085"
    INDEX 01 00:09:32
  TRACK 11 AUDIO
    TITLE "0:"
    INDEX 01 00:12:32
  TRACK 12 AUDIO
    TITLE "3:cjc093_1086"
    INDEX 01 00:13:47
  TRACK 13 AUDIO
    TITLE "0:"
    INDEX 01 00:15:62
  TRACK 14 AUDIO
    TITLE "4:cjc093_1087"
    INDEX 01 00:16:06
  TRACK 15 AUDIO
    TITLE "0:"
    INDEX 01 00:17:72
  TRACK 16 AUDIO
    TITLE "2:cjc093_1088"
    INDEX 01 00:19:07
  TRACK 17 AUDIO
    TITLE "0:"
    INDEX 01 00:20:16
  TRACK 18 AUDIO
    TITLE "3:cjc093_1089"
    INDEX 01 00:20:71
  TRACK 19 AUDIO
    TITLE "0:"
    INDEX 01 00:23:14
  TRACK 20 AUDIO
    TITLE "4:cjc093_1090"
    INDEX 01 00:23:55
  TRACK 21 AUDIO
    TITLE "0:"
    INDEX 01 00:26:69
  TRACK 22 AUDIO
    TITLE "2:cjc093_1091"
    INDEX 01 00:28:08
  TRACK 23 AUDIO
    TITLE "0:"
    INDEX 01 00:28:74
  TRACK 24 AUDIO
    TITLE "3:cjc093_1092"
    INDEX 01 00:29:56
  TRACK 25 AUDIO
    TITLE "0:"
    INDEX 01 00:31:55
  TRACK 26 AUDIO
    TITLE "4:cjc093_1093"
    INDEX 01 00:32:13
  TRACK 27 AUDIO
    TITLE "0:"
    INDEX 01 00:34:20
  TRACK 28 AUDIO
    TITLE "3:cjc093_1094"
    INDEX 01 00:35:33
  TRACK 29 AUDIO
    TITLE "0:"
    INDEX 01 00:37:38
  TRACK 30 AUDIO
    TITLE "4:cjc093_1095"
    INDEX 01 00:37:57
  TRACK 31 AUDIO
    TITLE "0:"
    INDEX 01 00:41:02
  TRACK 32 AUDIO
    TITLE "2:cjc093_1096"
    INDEX 01 00:42:18
  TRACK 33 AUDIO
    TITLE "0:"
    INDEX 01 00:43:17
  TRACK 34 AUDIO
    TITLE "3:cjc093_1097"
    INDEX 01 00:43:66
  TRACK 35 AUDIO
    TITLE "0:"
    INDEX 01 00:45:00
  TRACK 36 AUDIO
    TITLE "4:cjc093_1098"
    INDEX 01 00:45:32
  TRACK 37 AUDIO
    TITLE "0:"
    INDEX 01 00:48:55
  TRACK 38 AUDIO
    TITLE "3:cjc093_1099"
    INDEX 01 00:49:69
  TRACK 39 AUDIO
    TITLE "0:"
    INDEX 01 00:52:06
  TRACK 40 AUDIO
    TITLE "4:cjc093_1100"
    INDEX 01 00:52:32
  TRACK 41 AUDIO
    TITLE "0:"
    INDEX 01 00:55:50
  TRACK 42 AUDIO
    TITLE "2:cjc093_1101"
    INDEX 01 00:56:63
  TRACK 43 AUDIO
    TITLE "0:"
    INDEX 01 00:58:05
  TRACK 44 AUDIO
    TITLE "3:cjc093_1102"
    INDEX 01 00:58:44
  TRACK 45 AUDIO
    TITLE "0:"
    INDEX 01 00:59:59
  TRACK 46 AUDIO
    TITLE "4:cjc093_1103"
    INDEX 01 01:00:21
  TRACK 47 AUDIO
    TITLE "0:"
    INDEX 01 01:03:08
  TRACK 48 AUDIO
    TITLE "4:cjc093_1104"
    INDEX 01 01:03:53
  TRACK 49 AUDIO
    TITLE "0:"
    INDEX 01 01:06:22
  TRACK 50 AUDIO
    TITLE "2:cjc093_1105"
    INDEX 01 01:07:39
  TRACK 51 AUDIO
    TITLE "0:"
    INDEX 01 01:08:64
  TRACK 52 AUDIO
    TITLE "3:cjc093_1106"
    INDEX 01 01:09:22
  TRACK 53 AUDIO
    TITLE "0:"
    INDEX 01 01:10:61
  TRACK 54 AUDIO
    TITLE "4:cjc093_1107"
    INDEX 01 01:11:21
  TRACK 55 AUDIO
    TITLE "0:"
    INDEX 01 01:13:67
  TRACK 56 AUDIO
    TITLE "2:cjc093_1108"
    INDEX 01 01:14:74
  TRACK 57 AUDIO
    TITLE "0:"
    INDEX 01 01:16:01
  TRACK 58 AUDIO
    TITLE "3:cjc093_1109"
    INDEX 01 01:16:42
  TRACK 59 AUDIO
    TITLE "0:"
    INDEX 01 01:18:68
  TRACK 60 AUDIO
    TITLE "4:cjc093_1110"
    INDEX 01 01:19:13
  TRACK 61 AUDIO
    TITLE "0:"
    INDEX 01 01:22:31
  TRACK 62 AUDIO
    TITLE "2:cjc093_1111"
    INDEX 01 01:23:44
  TRACK 63 AUDIO
    TITLE "0:"
    INDEX 01 01:24:59
  TRACK 64 AUDIO
    TITLE "3:cjc093_1112"
    INDEX 01 01:25:13
  TRACK 65 AUDIO
    TITLE "0:"
    INDEX 01 01:26:11
  TRACK 66 AUDIO
    TITLE "4:cjc093_1113"
    INDEX 01 01:26:40
  TRACK 67 AUDIO
    TITLE "0:"
    INDEX 01 01:29:74
  TRACK 68 AUDIO
    TITLE "3:cjc093_1114"
    INDEX 01 01:31:14
  TRACK 69 AUDIO
    TITLE "0:"
    INDEX 01 01:32:37
  TRACK 70 AUDIO
    TITLE "4:cjc093_1115"
    INDEX 01 01:32:68
  TRACK 71 AUDIO
    TITLE "0:"
    INDEX 01 01:36:25
